<svg width="162" height="57" viewBox="0 0 162 57" fill="none" xmlns="http://www.w3.org/2000/svg">
<g filter="url(#filter0_d_1270_2668)">
<path d="M9.76465 10.625H19.7256V13.2617H17.9678V20H16.7959L15.082 18.7109C14.0029 19.7656 12.4258 20.293 10.3506 20.293C9.47656 20.293 8.6416 20.2002 7.8457 20.0146C7.05469 19.834 6.33691 19.5801 5.69238 19.2529C5.05273 18.9258 4.46191 18.5352 3.91992 18.0811C3.37793 17.627 2.90918 17.1265 2.51367 16.5796C2.11816 16.0278 1.78125 15.4443 1.50293 14.8291C1.22949 14.209 1.02441 13.5718 0.887695 12.9175C0.750977 12.2583 0.682617 11.5918 0.682617 10.918C0.682617 10.2441 0.750977 9.58008 0.887695 8.92578C1.02441 8.2666 1.22949 7.62939 1.50293 7.01416C1.78125 6.39404 2.11816 5.81055 2.51367 5.26367C2.90918 4.71191 3.37793 4.20898 3.91992 3.75488C4.46191 3.30078 5.05273 2.91016 5.69238 2.58301C6.33691 2.25586 7.05469 2.00195 7.8457 1.82129C8.6416 1.63574 9.47656 1.54297 10.3506 1.54297C12.9141 1.54297 14.9648 2.22656 16.5029 3.59375C17.1328 4.15039 17.582 4.71191 17.8506 5.27832C18.124 5.83984 18.2607 6.54785 18.2607 7.40234C18.2607 8.05176 18.0312 8.60596 17.5723 9.06494C17.1182 9.51904 16.5664 9.74609 15.917 9.74609C15.2676 9.74609 14.7134 9.51904 14.2544 9.06494C13.8003 8.60596 13.5732 8.05176 13.5732 7.40234C13.5732 7.07031 13.6392 6.75781 13.771 6.46484C13.9028 6.16699 14.0859 5.9082 14.3203 5.68848C13.9688 5.03418 13.4927 4.57031 12.8921 4.29688C12.2964 4.02344 11.5469 3.88672 10.6436 3.88672C10.0527 3.88672 9.50342 4.00635 8.99561 4.24561C8.49268 4.48486 8.05566 4.81934 7.68457 5.24902C7.31836 5.67871 7.00342 6.18652 6.73975 6.77246C6.47607 7.3584 6.27832 8.00293 6.14648 8.70605C6.01953 9.4043 5.95605 10.1416 5.95605 10.918C5.95605 11.6846 6.03418 12.4219 6.19043 13.1299C6.34668 13.8379 6.57373 14.4824 6.87158 15.0635C7.16943 15.6445 7.51855 16.1523 7.91895 16.5869C8.31934 17.0166 8.77832 17.3511 9.2959 17.5903C9.81836 17.8296 10.3652 17.9492 10.9365 17.9492C11.8643 17.9492 12.6455 17.6538 13.2803 17.063V13.2617H9.76465V10.625ZM33.2021 11.1743V17.6562H34.667V20H30.104L29.4521 18.4766C28.9541 19.1895 28.3755 19.6777 27.7163 19.9414C27.062 20.2051 26.1465 20.3369 24.9697 20.3369C24.3594 20.3369 23.7905 20.2295 23.2632 20.0146C22.7407 19.8047 22.2939 19.5166 21.9229 19.1504C21.5566 18.7842 21.2686 18.3447 21.0586 17.832C20.8535 17.3193 20.751 16.77 20.751 16.1841C20.751 15.1733 21.1465 14.3359 21.9375 13.6719C22.7285 13.0029 23.7393 12.6685 24.9697 12.6685C25.9609 12.6685 26.7812 12.7637 27.4307 12.9541C28.0801 13.1396 28.6367 13.4375 29.1006 13.8477V10.7422C29.1006 10.3027 29.0396 9.93652 28.9175 9.64355C28.8003 9.3457 28.6221 9.11865 28.3828 8.9624C28.1436 8.80127 27.875 8.68896 27.5771 8.62549C27.2793 8.56201 26.9229 8.53027 26.5078 8.53027C26.1758 8.53027 25.8755 8.60107 25.6069 8.74268C25.7583 9.06006 25.834 9.39453 25.834 9.74609C25.834 10.3955 25.6045 10.9497 25.1455 11.4087C24.6914 11.8628 24.1396 12.0898 23.4902 12.0898C22.8408 12.0898 22.2866 11.8628 21.8276 11.4087C21.3735 10.9497 21.1465 10.3955 21.1465 9.74609C21.1465 9.41406 21.21 9.10156 21.3369 8.80859C21.4688 8.51562 21.6494 8.25928 21.8789 8.03955C22.0742 7.83447 22.2769 7.65137 22.4868 7.49023C22.6968 7.32422 22.9604 7.16064 23.2778 6.99951C23.6001 6.8335 23.9492 6.69678 24.3252 6.58936C24.7012 6.48193 25.1504 6.39648 25.6729 6.33301C26.2002 6.26465 26.7764 6.23047 27.4014 6.23047C28.2119 6.23047 28.9736 6.3501 29.6865 6.58936C30.3994 6.82861 31.0146 7.16064 31.5322 7.58545C32.0498 8.01025 32.4575 8.53271 32.7554 9.15283C33.0532 9.77295 33.2021 10.4468 33.2021 11.1743ZM29.1006 16.748V15.7373C28.7979 15.4492 28.4561 15.2075 28.0752 15.0122C27.6992 14.812 27.3501 14.7119 27.0278 14.7119C26.3345 14.7119 25.8462 14.8291 25.563 15.0635C25.2798 15.293 25.1382 15.6665 25.1382 16.1841C25.1382 16.8042 25.2603 17.2607 25.5044 17.5537C25.7485 17.8467 26.2026 17.9932 26.8667 17.9932C27.2427 17.9932 27.6333 17.8735 28.0386 17.6343C28.4487 17.3901 28.8027 17.0947 29.1006 16.748ZM40.292 17.6636C40.5703 17.854 40.9902 17.9492 41.5518 17.9492C42.0547 17.9492 42.4624 17.9199 42.7749 17.8613C43.0923 17.8027 43.3315 17.7075 43.4927 17.5757C43.6538 17.439 43.7612 17.29 43.8149 17.1289C43.8687 16.9629 43.8955 16.748 43.8955 16.4844C43.8955 16.1719 43.8125 15.9033 43.6465 15.6787C43.4805 15.4541 43.2559 15.2734 42.9727 15.1367C42.6895 15 42.3647 14.8804 41.9985 14.7778C41.6323 14.6704 41.2466 14.5703 40.8413 14.4775C40.436 14.3799 40.0308 14.2749 39.6255 14.1626C39.2202 14.0454 38.8345 13.894 38.4683 13.7085C38.1021 13.5181 37.7773 13.2959 37.4941 13.042C37.2109 12.7832 36.9863 12.4487 36.8203 12.0386C36.6543 11.6284 36.5713 11.1572 36.5713 10.625C36.5713 10.1367 36.6299 9.69238 36.7471 9.29199C36.8643 8.8916 37.0205 8.55225 37.2158 8.27393C37.4111 7.99072 37.6577 7.74414 37.9556 7.53418C38.2534 7.32422 38.5635 7.15576 38.8857 7.02881C39.2129 6.90186 39.5791 6.79932 39.9844 6.72119C40.3945 6.64307 40.79 6.5918 41.1709 6.56738C41.5518 6.53809 41.9668 6.52344 42.416 6.52344C43.3926 6.52344 44.2446 6.64795 44.9722 6.89697C45.7046 7.146 46.2808 7.48047 46.7007 7.90039C46.9253 8.09082 47.0986 8.32275 47.2207 8.59619C47.3477 8.86475 47.4111 9.15039 47.4111 9.45312C47.4111 10.0195 47.2109 10.5029 46.8105 10.9033C46.4102 11.3037 45.9268 11.5039 45.3604 11.5039C44.7939 11.5039 44.3105 11.3037 43.9102 10.9033C43.5098 10.5029 43.3096 10.0195 43.3096 9.45312C43.3096 9.24805 43.3389 9.05029 43.3975 8.85986C43.1191 8.66943 42.6992 8.57422 42.1377 8.57422C41.4492 8.57422 40.9341 8.65723 40.5923 8.82324C40.2554 8.98926 40.0869 9.29688 40.0869 9.74609C40.0869 10.0293 40.1577 10.2808 40.2993 10.5005C40.4409 10.7153 40.6338 10.8936 40.8779 11.0352C41.1221 11.1719 41.4053 11.3037 41.7275 11.4307C42.0547 11.5527 42.4014 11.6577 42.7676 11.7456C43.1338 11.8286 43.5098 11.9312 43.8955 12.0532C44.2812 12.1753 44.6572 12.2998 45.0234 12.4268C45.3896 12.5537 45.7339 12.7222 46.0562 12.9321C46.3833 13.1372 46.6689 13.3691 46.9131 13.6279C47.1572 13.8867 47.3501 14.2114 47.4917 14.6021C47.6333 14.9878 47.7041 15.4199 47.7041 15.8984C47.7041 16.582 47.5894 17.1851 47.3599 17.7075C47.1353 18.2251 46.8325 18.645 46.4517 18.9673C46.0757 19.2896 45.6069 19.5532 45.0454 19.7583C44.4839 19.9585 43.9004 20.0977 43.2949 20.1758C42.6895 20.2539 42.0156 20.293 41.2734 20.293C39.7744 20.293 38.5659 20.0073 37.6479 19.436C36.7349 18.8647 36.2783 18.0762 36.2783 17.0703C36.2783 16.5039 36.4785 16.0205 36.8789 15.6201C37.2793 15.2197 37.7627 15.0195 38.3291 15.0195C38.8955 15.0195 39.3789 15.2197 39.7793 15.6201C40.1797 16.0205 40.3799 16.5039 40.3799 17.0703C40.3799 17.2754 40.3506 17.4731 40.292 17.6636ZM53.2705 3.59375H54.7354V6.52344H58.8369V8.86719H54.7354V16.4844C54.7354 16.8164 54.8281 17.0947 55.0137 17.3193C55.2041 17.5439 55.502 17.6562 55.9072 17.6562C56.3613 17.6562 56.7471 17.5073 57.0645 17.2095C57.3818 16.9067 57.582 16.4697 57.665 15.8984L59.4229 16.1914C59.3496 16.7627 59.208 17.2925 58.998 17.7808C58.793 18.2642 58.5244 18.6963 58.1924 19.0771C57.8604 19.4531 57.4478 19.751 56.9546 19.9707C56.4663 20.1855 55.9219 20.293 55.3213 20.293C53.8613 20.293 52.7139 19.9536 51.8789 19.2749C51.0488 18.5913 50.6338 17.6611 50.6338 16.4844V8.86719H49.1689V6.52344H49.4619C50.2139 6.52344 50.8779 6.30859 51.4541 5.87891C52.0303 5.44922 52.6357 4.6875 53.2705 3.59375ZM60.5947 6.52344H65.1431L66.0659 8.30322C66.9302 6.92139 68.1533 6.23047 69.7354 6.23047C70.7949 6.23047 71.6348 6.55762 72.2549 7.21191C72.8799 7.86133 73.1924 8.70605 73.1924 9.74609C73.1924 10.3955 72.9629 10.9497 72.5039 11.4087C72.0498 11.8628 71.498 12.0898 70.8486 12.0898C70.1992 12.0898 69.645 11.8628 69.186 11.4087C68.7319 10.9497 68.5049 10.3955 68.5049 9.74609C68.5049 9.48242 68.5464 9.22852 68.6294 8.98438C68.4976 8.90625 68.3584 8.86719 68.2119 8.86719C67.8848 8.86719 67.5454 9.08203 67.1938 9.51172C66.8472 9.93652 66.5127 10.5737 66.1904 11.4233L66.1611 17.6562H69.3838V20H60.5947V17.6562H62.0596V8.86719H60.5947V6.52344ZM78.2095 6.77979C79.0688 6.44287 79.9795 6.27441 80.9414 6.27441C81.9033 6.27441 82.8115 6.44287 83.666 6.77979C84.5254 7.1167 85.2725 7.58789 85.9072 8.19336C86.542 8.79395 87.0425 9.53613 87.4087 10.4199C87.7798 11.3037 87.9653 12.2656 87.9653 13.3057C87.9653 14.3457 87.7798 15.3076 87.4087 16.1914C87.0425 17.0752 86.542 17.8198 85.9072 18.4253C85.2725 19.0259 84.5254 19.4946 83.666 19.8315C82.8115 20.1685 81.9033 20.3369 80.9414 20.3369C79.9795 20.3369 79.0688 20.1685 78.2095 19.8315C77.355 19.4946 76.6104 19.0259 75.9756 18.4253C75.3457 17.8198 74.8452 17.0752 74.4741 16.1914C74.1079 15.3076 73.9248 14.3457 73.9248 13.3057C73.9248 12.2656 74.1079 11.3037 74.4741 10.4199C74.8452 9.53613 75.3457 8.79395 75.9756 8.19336C76.6104 7.58789 77.355 7.1167 78.2095 6.77979ZM80.9414 8.61816C80.5996 8.61816 80.2944 8.66699 80.0259 8.76465C79.7573 8.8623 79.5107 9.02344 79.2861 9.24805C79.0615 9.47266 78.876 9.76318 78.7295 10.1196C78.5879 10.4761 78.4756 10.9204 78.3926 11.4526C78.3145 11.9849 78.2754 12.6025 78.2754 13.3057C78.2754 14.0088 78.3145 14.6265 78.3926 15.1587C78.4756 15.6909 78.5879 16.1353 78.7295 16.4917C78.876 16.8481 79.0615 17.1387 79.2861 17.3633C79.5107 17.5879 79.7573 17.749 80.0259 17.8467C80.2944 17.9443 80.5996 17.9932 80.9414 17.9932C81.3711 17.9932 81.7446 17.9126 82.062 17.7515C82.3794 17.5854 82.6553 17.3218 82.8896 16.9604C83.1289 16.5991 83.3071 16.1133 83.4243 15.5029C83.5464 14.8926 83.6074 14.1602 83.6074 13.3057C83.6074 12.4512 83.5464 11.7188 83.4243 11.1084C83.3071 10.498 83.1289 10.0122 82.8896 9.65088C82.6553 9.28955 82.3794 9.02832 82.062 8.86719C81.7446 8.70117 81.3711 8.61816 80.9414 8.61816ZM98.9443 6.23047C99.6279 6.23047 100.226 6.32324 100.739 6.50879C101.251 6.69434 101.671 6.95068 101.999 7.27783C102.326 7.6001 102.589 8.0127 102.79 8.51562C102.995 9.01367 103.136 9.55078 103.214 10.127C103.297 10.6982 103.339 11.3525 103.339 12.0898V17.6562H104.804V20H97.7725V17.6562H99.2373V11.7969C99.2373 11.0254 99.1665 10.4248 99.0249 9.99512C98.8882 9.56543 98.688 9.27002 98.4243 9.10889C98.1655 8.94775 97.8115 8.86719 97.3623 8.86719C96.9521 8.86719 96.5322 9.04053 96.1025 9.38721C95.6729 9.73389 95.2651 10.2173 94.8794 10.8374L94.8428 17.6562H96.3076V20H89.2764V17.6562H90.7412V8.86719H89.2764V6.52344H93.8247L94.8501 8.5083C95.0308 8.18115 95.2383 7.88818 95.4727 7.62939C95.7119 7.36572 95.9951 7.12646 96.3223 6.91162C96.6543 6.69189 97.0425 6.52344 97.4868 6.40625C97.9312 6.28906 98.417 6.23047 98.9443 6.23047ZM109.821 6.77979C110.68 6.44287 111.591 6.27441 112.553 6.27441C113.515 6.27441 114.423 6.44287 115.277 6.77979C116.137 7.1167 116.884 7.58789 117.519 8.19336C118.153 8.79395 118.654 9.53613 119.02 10.4199C119.391 11.3037 119.577 12.2656 119.577 13.3057C119.577 14.3457 119.391 15.3076 119.02 16.1914C118.654 17.0752 118.153 17.8198 117.519 18.4253C116.884 19.0259 116.137 19.4946 115.277 19.8315C114.423 20.1685 113.515 20.3369 112.553 20.3369C111.591 20.3369 110.68 20.1685 109.821 19.8315C108.966 19.4946 108.222 19.0259 107.587 18.4253C106.957 17.8198 106.457 17.0752 106.085 16.1914C105.719 15.3076 105.536 14.3457 105.536 13.3057C105.536 12.2656 105.719 11.3037 106.085 10.4199C106.457 9.53613 106.957 8.79395 107.587 8.19336C108.222 7.58789 108.966 7.1167 109.821 6.77979ZM112.553 8.61816C112.211 8.61816 111.906 8.66699 111.637 8.76465C111.369 8.8623 111.122 9.02344 110.897 9.24805C110.673 9.47266 110.487 9.76318 110.341 10.1196C110.199 10.4761 110.087 10.9204 110.004 11.4526C109.926 11.9849 109.887 12.6025 109.887 13.3057C109.887 14.0088 109.926 14.6265 110.004 15.1587C110.087 15.6909 110.199 16.1353 110.341 16.4917C110.487 16.8481 110.673 17.1387 110.897 17.3633C111.122 17.5879 111.369 17.749 111.637 17.8467C111.906 17.9443 112.211 17.9932 112.553 17.9932C112.982 17.9932 113.356 17.9126 113.673 17.7515C113.991 17.5854 114.267 17.3218 114.501 16.9604C114.74 16.5991 114.918 16.1133 115.036 15.5029C115.158 14.8926 115.219 14.1602 115.219 13.3057C115.219 12.4512 115.158 11.7188 115.036 11.1084C114.918 10.498 114.74 10.0122 114.501 9.65088C114.267 9.28955 113.991 9.02832 113.673 8.86719C113.356 8.70117 112.982 8.61816 112.553 8.61816ZM139.052 6.23047C139.735 6.23047 140.333 6.32324 140.846 6.50879C141.359 6.69434 141.779 6.95068 142.106 7.27783C142.433 7.6001 142.697 8.0127 142.897 8.51562C143.102 9.01367 143.244 9.55078 143.322 10.127C143.405 10.6982 143.446 11.3525 143.446 12.0898V17.6562H144.911V20H137.88V17.6562H139.345V11.7969C139.345 11.0254 139.274 10.4248 139.132 9.99512C138.996 9.56543 138.795 9.27002 138.532 9.10889C138.273 8.94775 137.919 8.86719 137.47 8.86719C137.05 8.86719 136.618 9.05029 136.173 9.4165C135.729 9.78271 135.309 10.2954 134.914 10.9546C134.938 11.3062 134.95 11.6846 134.95 12.0898V17.6562H136.415V20H129.384V17.6562H130.849V11.7969C130.849 11.0254 130.778 10.4248 130.636 9.99512C130.5 9.56543 130.299 9.27002 130.036 9.10889C129.777 8.94775 129.423 8.86719 128.974 8.86719C128.563 8.86719 128.144 9.04053 127.714 9.38721C127.284 9.73389 126.876 10.2173 126.491 10.8374L126.454 17.6562H127.919V20H120.888V17.6562H122.353V8.86719H120.888V6.52344H125.436L126.461 8.5083C126.642 8.18115 126.85 7.88818 127.084 7.62939C127.323 7.36572 127.606 7.12646 127.934 6.91162C128.266 6.69189 128.654 6.52344 129.098 6.40625C129.542 6.28906 130.028 6.23047 130.556 6.23047C131.146 6.23047 131.674 6.29883 132.138 6.43555C132.602 6.56738 132.995 6.76514 133.317 7.02881C133.644 7.2876 133.915 7.59766 134.13 7.95898C134.345 8.31543 134.516 8.73047 134.643 9.2041C134.765 8.88672 134.906 8.58887 135.067 8.31055C135.233 8.03223 135.443 7.76367 135.697 7.50488C135.951 7.24121 136.232 7.01904 136.54 6.83838C136.852 6.65283 137.223 6.50635 137.653 6.39893C138.083 6.28662 138.549 6.23047 139.052 6.23047ZM147.936 4.96338C147.482 4.50439 147.255 3.9502 147.255 3.30078C147.255 2.65137 147.482 2.09961 147.936 1.64551C148.395 1.18652 148.949 0.957031 149.599 0.957031C150.248 0.957031 150.8 1.18652 151.254 1.64551C151.713 2.09961 151.942 2.65137 151.942 3.30078C151.942 3.9502 151.713 4.50439 151.254 4.96338C150.8 5.41748 150.248 5.64453 149.599 5.64453C148.949 5.64453 148.395 5.41748 147.936 4.96338ZM146.083 6.52344H151.649V17.6562H153.114V20H146.083V17.6562H147.548V8.86719H146.083V6.52344ZM29.0566 29.8359H39.0176V32.1797H36.0879V45.6562H40.7754C40.9805 45.6562 41.1636 45.5781 41.3247 45.4219C41.4858 45.2607 41.6079 45.0557 41.6909 44.8066C41.7788 44.5576 41.8423 44.3062 41.8813 44.0522C41.9253 43.7983 41.9473 43.5518 41.9473 43.3125V40.9688H44.584V48H29.0566V45.6562H31.4004V32.1797H29.0566V29.8359ZM50.7729 34.7798C51.6323 34.4429 52.543 34.2744 53.5049 34.2744C54.4668 34.2744 55.375 34.4429 56.2295 34.7798C57.0889 35.1167 57.8359 35.5879 58.4707 36.1934C59.1055 36.7939 59.606 37.5361 59.9722 38.4199C60.3433 39.3037 60.5288 40.2656 60.5288 41.3057C60.5288 42.3457 60.3433 43.3076 59.9722 44.1914C59.606 45.0752 59.1055 45.8198 58.4707 46.4253C57.8359 47.0259 57.0889 47.4946 56.2295 47.8315C55.375 48.1685 54.4668 48.3369 53.5049 48.3369C52.543 48.3369 51.6323 48.1685 50.7729 47.8315C49.9185 47.4946 49.1738 47.0259 48.5391 46.4253C47.9092 45.8198 47.4087 45.0752 47.0376 44.1914C46.6714 43.3076 46.4883 42.3457 46.4883 41.3057C46.4883 40.2656 46.6714 39.3037 47.0376 38.4199C47.4087 37.5361 47.9092 36.7939 48.5391 36.1934C49.1738 35.5879 49.9185 35.1167 50.7729 34.7798ZM53.5049 36.6182C53.1631 36.6182 52.8579 36.667 52.5894 36.7646C52.3208 36.8623 52.0742 37.0234 51.8496 37.248C51.625 37.4727 51.4395 37.7632 51.293 38.1196C51.1514 38.4761 51.0391 38.9204 50.9561 39.4526C50.8779 39.9849 50.8389 40.6025 50.8389 41.3057C50.8389 42.0088 50.8779 42.6265 50.9561 43.1587C51.0391 43.6909 51.1514 44.1353 51.293 44.4917C51.4395 44.8481 51.625 45.1387 51.8496 45.3633C52.0742 45.5879 52.3208 45.749 52.5894 45.8467C52.8579 45.9443 53.1631 45.9932 53.5049 45.9932C53.9346 45.9932 54.3081 45.9126 54.6255 45.7515C54.9429 45.5854 55.2188 45.3218 55.4531 44.9604C55.6924 44.5991 55.8706 44.1133 55.9878 43.5029C56.1099 42.8926 56.1709 42.1602 56.1709 41.3057C56.1709 40.4512 56.1099 39.7188 55.9878 39.1084C55.8706 38.498 55.6924 38.0122 55.4531 37.6509C55.2188 37.2896 54.9429 37.0283 54.6255 36.8672C54.3081 36.7012 53.9346 36.6182 53.5049 36.6182ZM80.0039 34.2305C80.6875 34.2305 81.2856 34.3232 81.7983 34.5088C82.311 34.6943 82.731 34.9507 83.0581 35.2778C83.3853 35.6001 83.6489 36.0127 83.8491 36.5156C84.0542 37.0137 84.1958 37.5508 84.2739 38.127C84.3569 38.6982 84.3984 39.3525 84.3984 40.0898V45.6562H85.8633V48H78.832V45.6562H80.2969V39.7969C80.2969 39.0254 80.2261 38.4248 80.0845 37.9951C79.9478 37.5654 79.7476 37.27 79.4839 37.1089C79.2251 36.9478 78.8711 36.8672 78.4219 36.8672C78.002 36.8672 77.5698 37.0503 77.1255 37.4165C76.6812 37.7827 76.2612 38.2954 75.8657 38.9546C75.8901 39.3062 75.9023 39.6846 75.9023 40.0898V45.6562H77.3672V48H70.3359V45.6562H71.8008V39.7969C71.8008 39.0254 71.73 38.4248 71.5884 37.9951C71.4517 37.5654 71.2515 37.27 70.9878 37.1089C70.729 36.9478 70.375 36.8672 69.9258 36.8672C69.5156 36.8672 69.0957 37.0405 68.666 37.3872C68.2363 37.7339 67.8286 38.2173 67.4429 38.8374L67.4062 45.6562H68.8711V48H61.8398V45.6562H63.3047V36.8672H61.8398V34.5234H66.3882L67.4136 36.5083C67.5942 36.1812 67.8018 35.8882 68.0361 35.6294C68.2754 35.3657 68.5586 35.1265 68.8857 34.9116C69.2178 34.6919 69.606 34.5234 70.0503 34.4062C70.4946 34.2891 70.9805 34.2305 71.5078 34.2305C72.0986 34.2305 72.626 34.2988 73.0898 34.4355C73.5537 34.5674 73.9468 34.7651 74.269 35.0288C74.5962 35.2876 74.8672 35.5977 75.082 35.959C75.2969 36.3154 75.4678 36.7305 75.5947 37.2041C75.7168 36.8867 75.8584 36.5889 76.0195 36.3105C76.1855 36.0322 76.3955 35.7637 76.6494 35.5049C76.9033 35.2412 77.1841 35.019 77.4917 34.8384C77.8042 34.6528 78.1753 34.5063 78.605 34.3989C79.0347 34.2866 79.501 34.2305 80.0039 34.2305ZM96.2051 34.2305C97.3477 34.2305 98.3145 34.521 99.1055 35.1021C99.9014 35.6782 100.492 36.4888 100.878 37.5337C101.269 38.5737 101.464 39.8188 101.464 41.269C101.464 42.3286 101.317 43.3003 101.024 44.1841C100.731 45.063 100.326 45.8027 99.8086 46.4033C99.2959 46.999 98.6807 47.4629 97.9629 47.7949C97.25 48.127 96.4736 48.293 95.6338 48.293C95.2432 48.293 94.8672 48.2588 94.5059 48.1904C94.1445 48.1221 93.8296 48.0391 93.561 47.9414C93.2925 47.8389 93.0288 47.7095 92.77 47.5532C92.5161 47.397 92.3037 47.2529 92.1328 47.1211C91.9668 46.9893 91.7983 46.833 91.6274 46.6523C91.4614 46.4717 91.3369 46.3301 91.2539 46.2275C91.1758 46.125 91.0879 46.0054 90.9902 45.8687L89.562 48H87.6211V32.1797H86.1562V29.8359H91.7227V36.7207C91.9229 36.374 92.1572 36.0566 92.4258 35.7686C92.6943 35.4805 93.0093 35.2192 93.3706 34.9849C93.7368 34.7456 94.1616 34.5601 94.645 34.4282C95.1284 34.2964 95.6484 34.2305 96.2051 34.2305ZM91.7227 43.6128C91.9814 44.2134 92.3184 44.6919 92.7334 45.0483C93.1484 45.3999 93.6392 45.5757 94.2056 45.5757C95.1724 45.5757 95.8901 45.1973 96.3589 44.4404C96.8325 43.6836 97.0693 42.6094 97.0693 41.2178C97.0693 40.5635 96.9912 39.9604 96.835 39.4087C96.6836 38.8521 96.4785 38.3906 96.2197 38.0244C95.9658 37.6582 95.6729 37.375 95.3408 37.1748C95.0088 36.9697 94.6621 36.8672 94.3008 36.8672C93.7637 36.8672 93.29 37.0332 92.8799 37.3652C92.4746 37.6924 92.0889 38.1831 91.7227 38.8374V43.6128ZM107.228 34.7798C108.087 34.4429 108.998 34.2744 109.96 34.2744C110.922 34.2744 111.83 34.4429 112.685 34.7798C113.544 35.1167 114.291 35.5879 114.926 36.1934C115.561 36.7939 116.061 37.5361 116.427 38.4199C116.798 39.3037 116.984 40.2656 116.984 41.3057C116.984 42.3457 116.798 43.3076 116.427 44.1914C116.061 45.0752 115.561 45.8198 114.926 46.4253C114.291 47.0259 113.544 47.4946 112.685 47.8315C111.83 48.1685 110.922 48.3369 109.96 48.3369C108.998 48.3369 108.087 48.1685 107.228 47.8315C106.374 47.4946 105.629 47.0259 104.994 46.4253C104.364 45.8198 103.864 45.0752 103.493 44.1914C103.126 43.3076 102.943 42.3457 102.943 41.3057C102.943 40.2656 103.126 39.3037 103.493 38.4199C103.864 37.5361 104.364 36.7939 104.994 36.1934C105.629 35.5879 106.374 35.1167 107.228 34.7798ZM109.96 36.6182C109.618 36.6182 109.313 36.667 109.044 36.7646C108.776 36.8623 108.529 37.0234 108.305 37.248C108.08 37.4727 107.895 37.7632 107.748 38.1196C107.606 38.4761 107.494 38.9204 107.411 39.4526C107.333 39.9849 107.294 40.6025 107.294 41.3057C107.294 42.0088 107.333 42.6265 107.411 43.1587C107.494 43.6909 107.606 44.1353 107.748 44.4917C107.895 44.8481 108.08 45.1387 108.305 45.3633C108.529 45.5879 108.776 45.749 109.044 45.8467C109.313 45.9443 109.618 45.9932 109.96 45.9932C110.39 45.9932 110.763 45.9126 111.081 45.7515C111.398 45.5854 111.674 45.3218 111.908 44.9604C112.147 44.5991 112.326 44.1133 112.443 43.5029C112.565 42.8926 112.626 42.1602 112.626 41.3057C112.626 40.4512 112.565 39.7188 112.443 39.1084C112.326 38.498 112.147 38.0122 111.908 37.6509C111.674 37.2896 111.398 37.0283 111.081 36.8672C110.763 36.7012 110.39 36.6182 109.96 36.6182ZM125.912 36.8672V34.5234H132.943V36.8672H131.024L128.117 40.0605L132.035 45.6562H133.236V48H126.205V45.6562H127.143L123.861 40.9688L127.597 36.8672H125.912ZM117.709 29.8359H123.275V45.6562H124.74V48H117.709V45.6562H119.174V32.1797H117.709V29.8359Z" fill="white"/>
</g>
<defs>
<filter id="filter0_d_1270_2668" x="0.682617" y="0.957031" width="160.432" height="55.3799" filterUnits="userSpaceOnUse" color-interpolation-filters="sRGB">
<feFlood flood-opacity="0" result="BackgroundImageFix"/>
<feColorMatrix in="SourceAlpha" type="matrix" values="0 0 0 0 0 0 0 0 0 0 0 0 0 0 0 0 0 0 127 0" result="hardAlpha"/>
<feOffset dx="4" dy="4"/>
<feGaussianBlur stdDeviation="2"/>
<feComposite in2="hardAlpha" operator="out"/>
<feColorMatrix type="matrix" values="0 0 0 0 1 0 0 0 0 1 0 0 0 0 1 0 0 0 0.25 0"/>
<feBlend mode="normal" in2="BackgroundImageFix" result="effect1_dropShadow_1270_2668"/>
<feBlend mode="normal" in="SourceGraphic" in2="effect1_dropShadow_1270_2668" result="shape"/>
</filter>
</defs>
</svg>
